PathFileType	4	(X/Y/Z)	C:\Users\Basilio\Documents\Thesis Gigler\squatting_fais\c3dfiles\047\SLS_pre_front2\markers_experimental.trc
DataRate	CameraRate	NumFrames	NumMarkers	Units	OrigDataRate	OrigDataStartFrame	OrigNumFrames
200.000000	200.000000	4	60	mm	200.000000	1100	1258
Frame#	Time	FHD			LBHD			RBHD			C7			T10			CLAV			LSHO			LUUPA			LMUPA			LDUPA			LLEP			LMEP			LRAD			LUL			LRFIN			RSHO			RUPA1			RMUPA			RDUPA			RLEP			RMEP			RRAD			RUL			RUFIN			LASI			RASI			USACR			LSACR			RSACR			LTHI1			LTHI2			LTHI3			LTHI4			LLFC			LMFC			LTIB1			LTIB2			LTIB3			LTIB4			LLMAL			LMMAL			LMT1			LMT2			LMT5			RTHI			RTHI2			RTHI3			RTHI4			RLFC			RMFC			RTIB1			RTIB2			RTIB3			RTIB4			RLMAL			RMMAL			RHEE			RMT1			RMT2			RMT5			
		X1	Y1	Z1	X2	Y2	Z2	X3	Y3	Z3	X4	Y4	Z4	X5	Y5	Z5	X6	Y6	Z6	X7	Y7	Z7	X8	Y8	Z8	X9	Y9	Z9	X10	Y10	Z10	X11	Y11	Z11	X12	Y12	Z12	X13	Y13	Z13	X14	Y14	Z14	X15	Y15	Z15	X16	Y16	Z16	X17	Y17	Z17	X18	Y18	Z18	X19	Y19	Z19	X20	Y20	Z20	X21	Y21	Z21	X22	Y22	Z22	X23	Y23	Z23	X24	Y24	Z24	X25	Y25	Z25	X26	Y26	Z26	X27	Y27	Z27	X28	Y28	Z28	X29	Y29	Z29	X30	Y30	Z30	X31	Y31	Z31	X32	Y32	Z32	X33	Y33	Z33	X34	Y34	Z34	X35	Y35	Z35	X36	Y36	Z36	X37	Y37	Z37	X38	Y38	Z38	X39	Y39	Z39	X40	Y40	Z40	X41	Y41	Z41	X42	Y42	Z42	X43	Y43	Z43	X44	Y44	Z44	X45	Y45	Z45	X46	Y46	Z46	X47	Y47	Z47	X48	Y48	Z48	X49	Y49	Z49	X50	Y50	Z50	X51	Y51	Z51	X52	Y52	Z52	X53	Y53	Z53	X54	Y54	Z54	X55	Y55	Z55	X56	Y56	Z56	X57	Y57	Z57	X58	Y58	Z58	X59	Y59	Z59	X60	Y60	Z60	

1101	5.5	-218.1424865722657	1745.26123046875	-1083.386474609375	-393.3544921875001	1702.036010742188	-1118.159057617188	-378.5574645996094	1707.811401367188	-970.3389892578127	-410.1611328125001	1520.410400390625	-1040.327392578125	-410.3101501464845	1210.893432617188	-1015.260864257813	-250.6483306884766	1482.267456054688	-1064.589233398438	-340.5708007812501	1511.442016601563	-1205.5849609375	-254.4800720214844	1459.468139648438	-1343.611450195313	-235.8558654785157	1505.275756835938	-1339.044067382813	-195.7288818359376	1479.16650390625	-1374.238891601563	-142.014389038086	1510.773559570313	-1398.560546875	-97.19909667968753	1458.124145507813	-1355.786010742188	117.5263671875	1577.036865234375	-1419.298950195313	91.81255340576173	1587.408325195313	-1491.132202148438	185.9831695556641	1623.14990234375	-1454.990356445313	-298.3977966308594	1531.151245117188	-916.2573852539065	-161.7540435791016	1488.779174804688	-805.870788574219	-139.4901580810547	1527.417358398438	-828.0266723632815	-92.53643035888673	1496.547729492188	-805.977478027344	-27.58125877380372	1519.888793945313	-814.4089355468752	-10.14807987213135	1456.65087890625	-864.4119262695315	234.0832824707032	1558.876586914063	-883.6460571289065	224.4384918212891	1570.116943359375	-808.089050292969	308.1824035644532	1589.198852539063	-867.425231933594	-234.2901763916016	989.7326660156252	-1108.971923828125	-224.8333587646485	1021.746520996094	-882.0803222656252	-417.1158752441407	1072.968994140625	-1000.690734863281	-418.0533142089845	1038.483154296875	-1025.932250976563	-419.3989562988282	1044.679931640625	-967.5288696289065	-318.4027709960938	827.4007568359377	-1165.947143554688	-278.9569702148438	752.7943725585939	-1167.111450195313	-230.3835754394532	759.9636840820314	-1159.08251953125	-304.2947998046876	697.5128784179689	-1157.053466796875	-315.5531616210938	525.8012695312501	-1115.34326171875	-274.8103637695313	520.5176391601564	-998.6548461914065	-277.7181701660157	342.2316894531251	-1018.560302734375	-292.8850402832032	293.7438964843751	-1090.197875976563	-271.6446838378907	292.2443847656251	-1046.053955078125	-284.3489685058594	217.2730407714844	-1013.320373535156	-336.4437255859376	117.6883773803711	-1051.792114257813	-310.6361999511719	137.9868621826172	-967.7794189453127	-190.0035858154297	66.93043518066408	-981.9378662109377	-189.5187530517578	59.71223831176759	-1025.72216796875	-238.6498718261719	42.29965591430665	-1069.134399414063	-217.2530975341797	867.4287719726565	-776.5239868164065	-151.3164520263672	856.836608886719	-782.0708618164065	-131.7288208007813	879.2854614257815	-794.5717773437502	-112.2079467773438	783.0057373046877	-780.6175537109377	-4.73099708557129	683.9181518554689	-798.2794189453127	11.16849327087403	680.9237670898439	-922.3579101562502	85.48574829101564	587.0552368164064	-817.039245605469	68.68938446044923	490.4961547851564	-766.5823974609376	105.9460601806641	506.6443176269532	-789.5166015625002	130.0976715087891	464.6531677246095	-822.5755615234377	137.3521575927735	306.8029479980469	-778.4531250000002	145.6016845703125	319.3266296386719	-868.883972167969	87.96111297607423	252.6142578125001	-819.5322875976565	289.3706054687501	287.5074157714844	-866.2424926757815	297.7698669433594	300.1839904785157	-824.521423339844	266.7552490234376	269.5274658203126	-760.4848022460939	
1102	5.505	-218.2796325683594	1745.342407226563	-1083.76953125	-393.2947692871095	1702.025634765625	-1118.44921875	-378.6903991699219	1707.806640625	-970.604187011719	-410.276092529297	1520.41845703125	-1040.445434570313	-410.4368591308595	1210.947875976563	-1015.295166015625	-250.6900024414063	1482.2626953125	-1064.672119140625	-341.0448608398438	1511.232421875	-1205.561645507813	-254.4544372558594	1459.206665039063	-1343.690551757813	-235.9056549072266	1505.003662109375	-1339.121459960938	-195.7415771484376	1479.019897460938	-1374.356323242188	-141.9007568359375	1510.33447265625	-1398.562744140625	-97.1564865112305	1457.996948242188	-1355.941772460938	117.6788558959961	1576.48046875	-1419.115600585938	91.90772247314455	1586.890747070313	-1491.246337890625	185.8968811035157	1622.391723632813	-1455.037353515625	-298.4363098144532	1531.20654296875	-916.4389648437502	-161.8273315429688	1488.79833984375	-806.0279541015627	-139.5783081054688	1527.34228515625	-828.1097412109377	-92.63916778564455	1496.452392578125	-806.115661621094	-27.61263465881348	1519.831787109375	-814.5794067382815	-10.20797824859619	1456.567626953125	-864.4585571289065	234.0525970458985	1558.693969726563	-883.721130371094	224.3853454589844	1569.887939453125	-808.249450683594	308.4036865234376	1588.840698242188	-867.847351074219	-234.3607482910157	989.767272949219	-1108.925170898438	-224.8620300292969	1021.780029296875	-882.087097167969	-417.1518554687501	1072.913696289063	-1000.621520996094	-418.0282592773439	1038.449340820313	-1025.873168945313	-419.4371948242189	1044.75	-967.451843261719	-318.3597106933594	827.4776000976565	-1165.955200195313	-278.9584045410157	752.8939208984376	-1167.0029296875	-230.3653259277344	760.0775146484376	-1159.03369140625	-304.2630310058594	697.5054321289064	-1157.062744140625	-315.6067810058594	525.8733520507814	-1115.304321289063	-274.8140563964844	520.5711669921876	-998.6429443359377	-277.7673339843751	342.2778625488282	-1018.542846679688	-292.9747314453126	293.8186645507813	-1090.26953125	-271.6726989746094	292.2810363769532	-1046.078979492188	-284.2927246093751	217.3195800781251	-1013.510986328125	-336.3128662109376	117.7192611694336	-1051.944458007813	-310.5109558105469	138.0951538085938	-967.9451904296877	-190.5770416259766	67.11227416992189	-981.844421386719	-197.8470611572266	55.49575805664064	-1023.122741699219	-238.5683288574219	42.29816818237305	-1069.2353515625	-217.2637786865235	867.3795166015627	-776.5010375976565	-151.2972564697266	856.7698364257815	-781.991394042969	-131.7972717285157	879.2105712890627	-794.5115356445315	-112.1953582763672	782.989196777344	-780.655456542969	-4.741573810577393	683.9472656250001	-798.1531372070315	11.19725131988526	681.0049438476564	-922.222595214844	85.53132629394533	587.0643920898439	-817.0806274414065	68.62735748291017	490.4047851562501	-766.4204711914064	105.8932113647461	506.6221618652345	-789.262634277344	130.1227111816407	464.6835021972657	-822.4400024414065	137.3562164306641	306.8427429199219	-778.270690917969	145.5532379150391	319.3296508789063	-868.650329589844	87.95401763916017	252.5738220214844	-819.225769042969	290.1918029785157	287.7940673828126	-867.1519165039065	297.7778015136719	300.1972656250001	-824.4211425781252	266.7523193359376	269.5630798339844	-760.2881469726564	
1103	5.51	-218.333236694336	1745.352661132813	-1083.956787109375	-393.5093078613282	1701.999877929688	-1118.647583007813	-378.7959899902344	1707.812744140625	-970.8970336914065	-410.3302612304689	1520.497680664063	-1040.574829101563	-410.4376220703126	1210.944091796875	-1015.295227050781	-250.7564086914063	1482.209594726563	-1064.841430664063	-340.9838562011719	1511.154541015625	-1205.762084960938	-254.4410705566407	1458.985473632813	-1343.785034179688	-235.8934173583985	1504.81103515625	-1339.22314453125	-195.7109985351563	1478.66748046875	-1374.590454101563	-141.8576354980469	1510.107299804688	-1398.550659179688	-97.07789611816409	1457.737670898438	-1356.050537109375	117.8206329345703	1576.0703125	-1419.43212890625	91.97607421875001	1586.265625	-1491.297729492188	186.1841430664063	1621.809448242188	-1455.28466796875	-298.5238037109376	1531.194213867188	-916.6215820312502	-161.9443359375	1488.786743164063	-805.9324340820315	-139.6062164306641	1527.31396484375	-828.2803955078127	-92.73133850097658	1496.431884765625	-806.2584228515627	-27.82245254516602	1519.50048828125	-814.5810546875002	-10.32334136962891	1456.468994140625	-864.5928344726565	233.9487915039063	1558.481811523438	-883.8181762695315	224.5463562011719	1570.103393554688	-808.5632934570315	308.9244384765626	1588.447509765625	-868.357116699219	-233.4794006347657	989.7612304687502	-1108.94384765625	-224.9334106445313	1021.7763671875	-881.9624023437502	-417.1808471679689	1072.937622070313	-1000.514953613281	-418.1466674804689	1038.463012695313	-1025.757202148438	-419.5062561035157	1044.734741210938	-967.3826293945315	-318.3886718750001	827.5494384765627	-1165.946899414063	-279.0404968261719	752.9114379882814	-1166.931030273438	-230.3446502685547	760.0654907226564	-1159.003662109375	-304.2696533203126	697.5528564453126	-1157.012084960938	-315.6707153320313	525.9667968750001	-1115.304443359375	-274.8526000976563	520.6041259765626	-998.658630371094	-277.9102783203126	342.4110717773438	-1018.447692871094	-293.0109863281251	293.9181518554688	-1090.282592773438	-271.7000732421876	292.3719482421876	-1046.194091796875	-284.3031005859376	217.6613922119141	-1013.565002441406	-336.4214172363282	117.7462692260742	-1052.013305664063	-310.5795288085938	138.1905517578125	-968.0228271484377	-190.0870513916016	66.90412902832033	-982.0110473632815	-190.0837707519532	59.34926605224611	-1025.598999023438	-238.6231231689454	42.29326248168946	-1069.281616210938	-217.3689270019532	867.369323730469	-776.7102661132815	-151.2952880859375	856.7797851562502	-781.9085693359377	-131.7389068603516	879.2099609375002	-794.6025390625002	-112.1733322143555	783.0026855468752	-780.6981201171877	-4.685372829437257	683.9744873046876	-798.0167236328127	11.15852165222168	681.0042724609376	-922.0537719726565	85.7091522216797	587.0704956054689	-816.845397949219	68.54491424560548	490.4095764160157	-766.1190185546876	105.9589462280274	506.6889648437501	-789.268981933594	130.1250610351563	464.7155761718751	-822.244079589844	137.4178314208985	306.9195251464844	-778.1275634765627	145.449447631836	319.2893066406251	-868.4144287109377	87.97914886474611	252.6085662841797	-818.9776611328127	290.2839660644532	287.8339843750001	-867.0133056640627	297.7653808593751	300.1793518066407	-824.1677856445315	266.7258300781251	269.5762939453126	-760.0808715820314	
1104	5.515	-218.5886688232422	1745.226806640625	-1084.113647460938	-393.5798950195314	1702.1357421875	-1118.842407226563	-379.0840454101563	1707.81103515625	-971.054870605469	-410.4280395507814	1520.348022460938	-1040.7939453125	-410.9086914062501	1210.681640625	-1015.313049316406	-250.9627532958985	1482.17431640625	-1064.92919921875	-340.8302001953126	1511.0947265625	-1206.056274414063	-254.5098876953126	1458.647338867188	-1343.903686523438	-235.8267669677735	1504.529174804688	-1339.346313476563	-195.6606903076172	1478.32470703125	-1374.6826171875	-141.8498992919922	1509.719482421875	-1398.655395507813	-97.00566101074222	1457.35595703125	-1356.15185546875	117.7326278686524	1575.598999023438	-1419.439697265625	92.02283477783205	1585.756469726563	-1491.34033203125	186.2079467773438	1621.443237304688	-1455.341552734375	-298.6150512695313	1531.260009765625	-916.7246093750002	-162.0491333007813	1488.818237304688	-806.037048339844	-139.765869140625	1527.27099609375	-828.4719848632815	-92.92324829101564	1496.371704101563	-806.155456542969	-27.92029380798341	1519.43896484375	-814.6718750000002	-10.40972709655762	1456.380737304688	-864.5996704101565	232.9468994140626	1558.59033203125	-883.4990844726565	224.5768127441407	1569.960693359375	-808.6348876953127	308.4029541015626	1588.278198242188	-868.158630371094	-234.3636627197266	989.9398193359377	-1108.86279296875	-224.9216308593751	1021.787658691406	-881.9497680664065	-417.5074768066407	1072.7666015625	-1000.551635742188	-418.1338195800782	1038.455322265625	-1025.672241210938	-419.4326477050782	1044.727416992188	-967.3003540039065	-318.4072570800782	827.6270751953127	-1165.9169921875	-279.0061645507813	752.9856567382814	-1166.816162109375	-230.4361724853516	760.1088256835939	-1158.931030273438	-304.3738708496094	697.6201171875001	-1157.003662109375	-315.8466796875001	526.0404663085939	-1115.274047851563	-274.9000549316407	520.6171264648439	-998.6640625000002	-277.9490966796876	342.4420776367188	-1018.46826171875	-293.0648498535157	293.9728393554688	-1090.29833984375	-271.7089233398438	292.4103393554688	-1046.2275390625	-284.2890625000001	217.6708526611329	-1013.728210449219	-336.4274902343751	117.7726974487305	-1052.125	-310.5923461914063	138.1876220703125	-968.1462402343752	-190.626953125	67.18515014648439	-981.8769531250002	-197.9224395751954	55.43437576293947	-1023.229187011719	-238.6324005126954	42.30294036865235	-1069.337646484375	-217.3834381103516	867.429870605469	-776.6209106445315	-151.469711303711	857.0518798828127	-782.4839477539065	-131.8005065917969	879.1880493164065	-794.5207519531252	-112.1950378417969	783.003845214844	-780.6165771484377	-4.724481582641602	683.9832153320314	-797.9236450195315	11.20221138000488	681.0272827148439	-922.042419433594	85.7478713989258	587.1376342773439	-816.714782714844	68.56705474853517	490.5220336914064	-765.7993164062501	105.8851547241211	506.7306213378907	-789.0173950195315	130.1833953857422	464.750457763672	-822.0501708984377	137.3269195556641	306.8782653808594	-777.8021240234377	145.682357788086	319.3698120117188	-868.1794433593752	87.91155242919923	252.6513824462891	-818.7053833007815	290.2427368164063	287.7882995605469	-866.7586669921877	297.7180786132813	300.1872253417969	-823.8679809570315	266.6123046875001	269.5769348144532	-759.6919555664064	
